<svg xmlns="http://www.w3.org/2000/svg" width="36" height="36" viewBox="0 0 36 36" fill="none"><path d="M27 12.3525C26.9977 11.9452 26.9167 11.5402 26.766 11.1667C26.1135 8.784 24.5452 6.849 22.4887 5.68575C22.4887 5.6655 22.5 5.6475 22.5 5.625V1.125C22.5 0.504 21.996 0 21.375 0H14.625C14.004 0 13.5 0.504 13.5 1.125V5.625C13.5 5.6475 13.5113 5.6655 13.5113 5.68575C11.4548 6.849 9.8865 8.78625 9.234 11.1667C9.08325 11.5402 9.00225 11.9452 9 12.3525C9 12.3682 9 12.384 9 12.3998C9.00675 13.257 9.34425 14.031 9.8775 14.625C9.3375 15.2235 9 16.0065 9 16.875C9 17.7435 9.3375 18.5265 9.8775 19.125C9.3375 19.7235 9 20.5065 9 21.375V32.625C9 34.4857 10.5142 36 12.375 36H23.625C25.4858 36 27 34.4857 27 32.625V21.375C27 20.5065 26.6625 19.7235 26.1225 19.125C26.6625 18.5265 27 17.7435 27 16.875C27 16.0065 26.6625 15.2235 26.1225 14.625C26.6557 14.031 26.9932 13.257 27 12.3975C27 12.384 27 12.3682 27 12.3525ZM15.75 2.25H20.25V4.5H15.75V2.25ZM11.3648 11.9183C11.4435 11.7697 11.4885 11.6123 11.4975 11.4548C12.402 8.67375 14.9805 6.75 18 6.75C21.0195 6.75 23.598 8.6715 24.5047 11.457C24.5092 11.5245 24.5205 11.592 24.5362 11.6573L24.7455 12.4897C24.687 13.0568 24.2078 13.5 23.625 13.5H12.375C11.7787 13.5 11.2927 13.0343 11.2522 12.4493C11.2837 12.2715 11.3198 12.0938 11.3648 11.9183ZM24.75 32.625C24.75 33.246 24.2437 33.75 23.625 33.75H12.375C11.7562 33.75 11.25 33.2438 11.25 32.625V21.375C11.25 20.754 11.7562 20.25 12.375 20.25H23.625C24.2437 20.25 24.75 20.754 24.75 21.375V32.625ZM23.625 18H12.375C11.7562 18 11.25 17.496 11.25 16.875C11.25 16.254 11.7562 15.75 12.375 15.75H23.625C24.2437 15.75 24.75 16.254 24.75 16.875C24.75 17.496 24.2437 18 23.625 18Z" fill="#4D8DDA"></path></svg>