<svg xmlns="http://www.w3.org/2000/svg" width="24" height="24" viewBox="0 0 24 24" fill="none"><path fill-rule="evenodd" clip-rule="evenodd" d="M3.59329 0.592123C3.94435 0.217709 4.41844 0 4.95278 0C5.48478 0 5.96908 0.204047 6.34165 0.576615L10.5952 4.83017C10.9789 5.21387 11.1493 5.7031 11.1493 6.19654C11.1493 6.70229 10.9607 7.17493 10.5952 7.5404L8.18064 9.95497L14.045 15.8194L16.4596 13.4048C16.8251 13.0393 17.2977 12.8507 17.8035 12.8507C18.2969 12.8507 18.7861 13.0211 19.1698 13.4048L23.4234 17.6583C23.796 18.0309 24 18.5152 24 19.0472C24 19.5816 23.7823 20.0556 23.4079 20.4067L20.5376 23.2969C20.091 23.7466 19.4698 24.0162 18.8038 23.9992C16.3374 23.9367 13.9977 23.4354 11.7943 22.491L11.788 22.4883C9.45014 21.4705 7.40292 20.0891 5.65693 18.3431C3.91093 16.5971 2.5295 14.5499 1.51168 12.212L1.50893 12.2057L1.50895 12.2057C0.564628 10.0023 0.06334 7.66259 0.000750598 5.19622C-0.0161504 4.53022 0.253417 3.90896 0.703052 3.46243L3.59329 0.592123ZM4.97414 2.60406L2.4012 5.15926C2.45892 7.32217 2.89798 9.35153 3.71408 11.2569C4.61659 13.3288 5.83035 15.1215 7.3544 16.6456C8.87848 18.1697 10.6712 19.3835 12.7432 20.286C14.6485 21.102 16.6779 21.5411 18.8407 21.5988L21.3959 19.0259L17.8147 15.4446L15.3181 17.9412C14.615 18.6443 13.475 18.6443 12.7719 17.9412L6.05879 11.2281C5.35567 10.525 5.35567 9.38498 6.05879 8.68186L8.55537 6.18528L4.97414 2.60406Z" fill="#4D8DDA"></path></svg>