<svg xmlns="http://www.w3.org/2000/svg" width="36" height="36" viewBox="0 0 36 36" fill="none"><g clip-path="url(#clip0)"><path d="M33.292 9.76771L33.2909 9.7397C33.2753 9.3939 33.2649 9.02806 33.2585 8.62102C33.2292 6.63607 31.6512 4.99416 29.666 4.8832C25.5269 4.65222 22.325 3.30255 19.5891 0.635901L19.5658 0.613653C18.6734 -0.204551 17.3273 -0.204551 16.4347 0.613653L16.4113 0.635901C13.6755 3.30255 10.4735 4.65222 6.33442 4.88348C4.34947 4.99416 2.77129 6.63607 2.7419 8.62129C2.73586 9.02559 2.72515 9.39143 2.70949 9.7397L2.70784 9.80479C2.62737 14.0255 2.52739 19.2783 4.28465 24.0461C5.2509 26.6679 6.71427 28.947 8.63385 30.8205C10.8201 32.954 13.6837 34.6478 17.1449 35.8547C17.2575 35.894 17.3745 35.9258 17.4938 35.9497C17.6618 35.9832 17.831 36 18.0002 36C18.1694 36 18.3389 35.9832 18.5067 35.9497C18.6259 35.9258 18.7437 35.8937 18.8569 35.8541C22.314 34.6451 25.1745 32.9504 27.3589 30.8172C29.2777 28.9432 30.741 26.6635 31.7081 24.0411C33.4719 19.259 33.3722 13.9963 33.292 9.76771ZM29.7262 23.3102C27.8728 28.3354 24.0894 31.7864 18.1598 33.8601C18.1386 33.8673 18.1161 33.8736 18.0928 33.8782C18.0315 33.8903 17.9692 33.8903 17.9071 33.878C17.884 33.8733 17.8615 33.8673 17.8406 33.8601C11.9047 31.7903 8.11887 28.3411 6.26685 23.3157C4.6472 18.9209 4.73893 14.0991 4.81996 9.84517L4.82051 9.82154C4.83699 9.45598 4.84797 9.0731 4.85402 8.65233C4.8672 7.77095 5.56922 7.04174 6.45225 6.99257C8.79453 6.86184 10.8523 6.4092 12.743 5.60885C14.6313 4.8096 16.3083 3.68295 17.8695 2.16464C17.9489 2.09763 18.0519 2.09735 18.131 2.16464C19.6924 3.68295 21.3694 4.8096 23.2574 5.60885C25.1482 6.4092 27.2059 6.86184 29.5485 6.99257C30.4315 7.04174 31.1335 7.77095 31.1464 8.6526C31.1527 9.07557 31.1637 9.45845 31.1802 9.82154C31.261 14.0804 31.3505 18.9061 29.7262 23.3102Z" fill="#4D8DDA"></path><path d="M17.9995 9.02881C13.0524 9.02881 9.02783 13.0536 9.02783 18.0005C9.02783 22.9477 13.0524 26.9725 17.9995 26.9725C22.9464 26.9725 26.9713 22.9477 26.9713 18.0005C26.9713 13.0536 22.9464 9.02881 17.9995 9.02881ZM17.9995 24.8598C14.2172 24.8598 11.1402 21.7828 11.1402 18.0005C11.1402 14.2182 14.2172 11.1412 17.9995 11.1412C21.7816 11.1412 24.8586 14.2182 24.8586 18.0005C24.8586 21.7828 21.7816 24.8598 17.9995 24.8598Z" fill="#4D8DDA"></path><path d="M20.5783 15.2154L16.4112 19.3825L15.2801 18.2514C14.8676 17.8389 14.1988 17.8389 13.7862 18.2514C13.374 18.664 13.374 19.3328 13.7862 19.745L15.6644 21.6232C15.8706 21.8294 16.1409 21.9324 16.4112 21.9324C16.6814 21.9324 16.9517 21.8294 17.158 21.6232L22.0721 16.709C22.4844 16.2964 22.4844 15.6276 22.0721 15.2154C21.6596 14.8026 20.9908 14.8026 20.5783 15.2154Z" fill="#4D8DDA"></path></g><defs><clipPath id="clip0"><rect width="36" height="36" fill="white"></rect></clipPath></defs></svg>