<svg xmlns="http://www.w3.org/2000/svg" width="36" height="36" viewBox="0 0 36 36" fill="none"><g clip-path="url(#clip0)"><path d="M36 10.5349V8.50071C36 7.33704 35.0536 6.39134 33.8906 6.39134H24.094V6.15649C24.094 4.6061 22.8319 3.34399 21.2815 3.34399H2.8125C1.26141 3.34399 0 4.6061 0 6.15649V25.9846C0 27.5357 1.26141 28.7971 2.8125 28.7971H4.31227C4.79672 31.0014 6.76477 32.6559 9.1118 32.6559C11.4588 32.6559 13.4269 31.0014 13.9106 28.7971H24.1931C24.6769 31.0014 26.6449 32.6559 28.992 32.6559C31.3636 32.6559 33.3478 30.967 33.8062 28.7282C35.0606 28.4456 36 27.3234 36 25.9846V18.2854C36 18.1132 35.9506 17.9253 35.8889 17.8143L33.4455 12.6442H33.8906C35.0536 12.6442 36 11.6978 36 10.5349ZM9.1118 30.5465C7.56366 30.5465 6.30773 29.2865 6.30773 27.7424C6.30773 26.2031 7.55923 24.9391 9.1118 24.9391C10.6617 24.9391 11.9152 26.2008 11.9152 27.7424C11.9152 29.2819 10.6648 30.5465 9.1118 30.5465ZM21.9846 26.6877H13.9106C13.4269 24.4834 11.4588 22.8297 9.1118 22.8297C6.76477 22.8297 4.79672 24.4834 4.31227 26.6877H2.8125C2.42508 26.6877 2.10938 26.3727 2.10938 25.9846V6.15649C2.10938 5.76907 2.42508 5.45337 2.8125 5.45337H21.2815C21.6689 5.45337 21.9846 5.76907 21.9846 6.15649V26.6877ZM24.094 12.6442H31.1126L33.2803 17.2307L33.2804 17.2309H24.094C24.094 16.5462 24.094 13.3294 24.094 12.6442ZM28.992 30.5465C27.4467 30.5465 26.1886 29.2885 26.1886 27.7424C26.1886 26.2001 27.4434 24.9391 28.992 24.9391C30.5426 24.9391 31.796 26.2011 31.796 27.7424C31.796 29.2845 30.5421 30.5465 28.992 30.5465ZM33.8906 19.3403V25.9847C33.8906 26.1556 33.8295 26.313 33.7282 26.4347C33.1545 24.3584 31.2483 22.8298 28.992 22.8298C26.6449 22.8298 24.6769 24.4835 24.1931 26.6878H24.094V19.3403H33.8906ZM24.094 10.5349V8.50071H33.8906V10.5349C32.9256 10.5349 25.0577 10.5349 24.094 10.5349Z" fill="#4D8DDA"></path></g><defs><clipPath id="clip0"><rect width="36" height="36" fill="white"></rect></clipPath></defs></svg>