<svg width="169" height="80" viewBox="0 0 169 80" fill="none" xmlns="http://www.w3.org/2000/svg">
<path d="M62.4531 39.7422H68.9062L67.0742 34.1367C66.9466 33.7357 66.8008 33.2891 66.6367 32.7969C66.4909 32.3047 66.3268 31.7669 66.1445 31.1836C65.9805 30.582 65.8529 30.1354 65.7617 29.8438H65.5977C65.543 30.026 65.1055 31.457 64.2852 34.1367L62.4531 39.7422ZM55.8906 48L63.7109 26.3711H67.6758L75.4688 48H71.6406L69.8633 42.6406H61.4961L59.7188 48H55.8906ZM79.2017 40.0977C79.2017 41.8112 79.5298 43.151 80.1861 44.1172C80.8423 45.0651 81.7173 45.5391 82.8111 45.5391C83.9048 45.5391 84.7798 45.056 85.4361 44.0898C86.0923 43.1055 86.4205 41.7747 86.4205 40.0977C86.4205 38.4935 86.1015 37.1901 85.4634 36.1875C84.8254 35.1849 83.9504 34.6836 82.8384 34.6836C81.69 34.6836 80.7968 35.1849 80.1588 36.1875C79.5207 37.1901 79.2017 38.4935 79.2017 40.0977ZM75.647 40.0977C75.647 37.5273 76.2759 35.4948 77.5338 34C78.7916 32.487 80.3957 31.7305 82.3463 31.7305C83.2577 31.7305 84.0689 31.9766 84.7798 32.4688C85.4908 32.9427 86.0559 33.5443 86.4752 34.2734V32.2227H89.8111V54.4531H86.3658V46.1406C86.0194 46.7969 85.4999 47.3529 84.8072 47.8086C84.1145 48.2643 83.2942 48.4922 82.3463 48.4922C81.5442 48.4922 80.7603 48.3281 79.9947 48C79.2291 47.6901 78.509 47.2161 77.8345 46.5781C77.1783 45.9401 76.6496 45.0651 76.2486 43.9531C75.8476 42.8229 75.647 41.5378 75.647 40.0977ZM92.9698 42.2852V32.2227H96.4425V41.8477C96.4425 44.3086 97.3084 45.5391 99.0402 45.5391C100.079 45.5391 100.89 45.1016 101.474 44.2266C102.057 43.3333 102.349 42.276 102.349 41.0547V32.2227H105.794V48H102.458V46.168H102.431C102.176 46.7331 101.683 47.2617 100.954 47.7539C100.243 48.2461 99.3501 48.4922 98.2745 48.4922C97.6365 48.4922 97.0258 48.3919 96.4425 48.1914C95.8774 48.0091 95.3214 47.7083 94.7745 47.2891C94.2277 46.8516 93.7902 46.2044 93.462 45.3477C93.1339 44.4909 92.9698 43.4701 92.9698 42.2852ZM111.578 43.5703C111.578 44.1536 111.806 44.6458 112.261 45.0469C112.735 45.4297 113.355 45.6211 114.121 45.6211C115.215 45.6211 116.144 45.2565 116.91 44.5273C117.694 43.7982 118.086 42.8411 118.086 41.6562V40.207C117.247 40.4076 116.235 40.599 115.05 40.7812C112.735 41.1458 111.578 42.0755 111.578 43.5703ZM108.078 43.8711C108.078 40.8997 110.284 39.0859 114.695 38.4297C116.299 38.1927 117.429 37.974 118.086 37.7734V36.9258C118.086 36.1602 117.812 35.5586 117.265 35.1211C116.718 34.6836 115.989 34.4648 115.078 34.4648C113.346 34.4648 111.851 35.1758 110.593 36.5977L108.488 34.793C109.308 33.8268 110.284 33.0794 111.414 32.5508C112.562 32.0039 113.765 31.7305 115.023 31.7305C117.375 31.7305 119.052 32.3047 120.054 33.4531C121.057 34.5833 121.558 36.1693 121.558 38.2109V48H118.195V46.0312C117.867 46.7057 117.293 47.2891 116.472 47.7812C115.67 48.2552 114.722 48.4922 113.629 48.4922C111.897 48.4922 110.539 48.0638 109.554 47.207C108.57 46.3503 108.078 45.2383 108.078 43.8711ZM124.553 48V32.2227H127.916V34.2188H127.944C128.217 33.6354 128.718 33.0794 129.448 32.5508C130.195 32.0039 131.152 31.7305 132.319 31.7305C133.886 31.7305 135.135 32.2135 136.065 33.1797C136.994 34.1458 137.459 35.7044 137.459 37.8555V48H133.987V38.3203C133.987 35.8958 133.166 34.6836 131.526 34.6836C130.523 34.6836 129.684 35.0846 129.01 35.8867C128.354 36.6888 128.026 37.6823 128.026 38.8672V48H124.553ZM139.278 48V45.7031L147.427 35.1758H139.934V32.2227H151.938V34.3828L143.735 45.0469H152.266V48H139.278ZM156.546 43.5703C156.546 44.1536 156.774 44.6458 157.23 45.0469C157.704 45.4297 158.324 45.6211 159.089 45.6211C160.183 45.6211 161.113 45.2565 161.878 44.5273C162.662 43.7982 163.054 42.8411 163.054 41.6562V40.207C162.216 40.4076 161.204 40.599 160.019 40.7812C157.704 41.1458 156.546 42.0755 156.546 43.5703ZM153.046 43.8711C153.046 40.8997 155.252 39.0859 159.663 38.4297C161.268 38.1927 162.398 37.974 163.054 37.7734V36.9258C163.054 36.1602 162.781 35.5586 162.234 35.1211C161.687 34.6836 160.958 34.4648 160.046 34.4648C158.314 34.4648 156.82 35.1758 155.562 36.5977L153.456 34.793C154.277 33.8268 155.252 33.0794 156.382 32.5508C157.531 32.0039 158.734 31.7305 159.992 31.7305C162.343 31.7305 164.02 32.3047 165.023 33.4531C166.025 34.5833 166.527 36.1693 166.527 38.2109V48H163.163V46.0312C162.835 46.7057 162.261 47.2891 161.441 47.7812C160.639 48.2552 159.691 48.4922 158.597 48.4922C156.865 48.4922 155.507 48.0638 154.523 47.207C153.538 46.3503 153.046 45.2383 153.046 43.8711Z" fill="#2A3749"/>
<g clip-path="url(#clip0)">
<path d="M23.2128 40.3276C21.7181 45.0303 22.3749 50.369 25.5001 54.6854C29.2141 59.797 34.8984 61.9779 41.0809 61.0919C44.5685 60.5921 46.7199 58.911 46.7199 58.911C50.8868 55.5942 51.7474 51.6639 50.4339 49.6875C49.2336 47.87 47.4672 46.6205 42.5076 47.87C34.9663 49.8238 25.2963 45.6437 23.2128 40.3276Z" fill="url(#paint0_linear)"/>
<path d="M29.032 32.2398C33.7425 28.8093 39.6985 28.3323 44.7034 30.445C47.7833 20.8807 39.3588 16.9959 36.0977 18.4726C36.6186 15.2012 34.8974 11.4755 30.0737 10.3623C24.163 8.99919 20.064 13.0203 20.064 13.0203C20.064 13.0203 21.151 9.83976 17.9578 8.36308C15.3761 7.15903 12.4094 9.31724 12.4094 9.31724C-1.04262 19.1314 -4.03196 38.0329 5.75134 51.5501C13.1341 61.7278 25.635 65.9306 37.1168 63.1818C40.2194 62.4321 44.0919 60.8872 46.4245 59.0925C39.4267 63.1136 30.3455 61.3643 25.4765 54.6625C20.3131 47.5063 21.8757 37.4649 29.032 32.2398Z" fill="url(#paint1_linear)"/>
</g>
<defs>
<linearGradient id="paint0_linear" x1="25.2241" y1="51.8721" x2="54.9027" y2="46.8687" gradientUnits="userSpaceOnUse">
<stop offset="0.103" stop-color="#2A3749"/>
<stop offset="0.9636" stop-color="#437CC0"/>
</linearGradient>
<linearGradient id="paint1_linear" x1="22.3737" y1="14.9509" x2="23.7411" y2="65.8393" gradientUnits="userSpaceOnUse">
<stop stop-color="#437CC0"/>
<stop offset="0.2926" stop-color="#5B97DF"/>
<stop offset="0.9879" stop-color="#78B6FF"/>
</linearGradient>
<clipPath id="clip0">
<rect width="51" height="56" fill="white" transform="translate(0 8)"/>
</clipPath>
</defs>
</svg>
