<svg xmlns="http://www.w3.org/2000/svg" width="36" height="36" viewBox="0 0 36 36" fill="none"><path d="M30.0538 29.4545H29.2502V14.7273H30.0538C30.1593 14.7273 30.2638 14.7062 30.3614 14.6651C30.4589 14.624 30.5475 14.5638 30.6221 14.4878C30.6968 14.4118 30.756 14.3216 30.7963 14.2223C30.8367 14.123 30.8574 14.0166 30.8574 13.9091C30.8574 10.0467 27.8793 9.03596 25.4866 8.22416C22.8381 7.32449 21.2145 6.64454 21.2145 4.09091V0.818182C21.2146 0.710719 21.1938 0.604297 21.1535 0.505001C21.1131 0.405706 21.0539 0.315484 20.9793 0.239496C20.9046 0.163508 20.816 0.103244 20.7185 0.0621492C20.621 0.0210545 20.5165 -6.43886e-05 20.4109 1.47463e-07H15.5895C15.484 -6.43886e-05 15.3794 0.0210545 15.2819 0.0621492C15.1844 0.103244 15.0958 0.163508 15.0211 0.239496C14.9465 0.315484 14.8873 0.405706 14.847 0.505001C14.8066 0.604297 14.7859 0.710719 14.7859 0.818182V4.09091C14.7859 6.64454 13.1623 7.32449 10.5138 8.22416C8.12114 9.03596 5.14307 10.0467 5.14307 13.9091C5.143 14.0166 5.16375 14.123 5.20411 14.2223C5.24447 14.3216 5.30365 14.4118 5.37829 14.4878C5.45292 14.5638 5.54153 14.624 5.63905 14.6651C5.73657 14.7062 5.84109 14.7273 5.94664 14.7273H6.75021V29.4545H5.94664C5.84109 29.4545 5.73657 29.4756 5.63905 29.5167C5.54153 29.5578 5.45292 29.6181 5.37829 29.694C5.30365 29.77 5.24447 29.8603 5.20411 29.9595C5.16375 30.0588 5.143 30.1653 5.14307 30.2727V31.9091C5.14431 32.9937 5.56802 34.0335 6.32124 34.8004C7.07447 35.5673 8.0957 35.9987 9.16092 36H26.8395C27.9047 35.9987 28.926 35.5673 29.6792 34.8004C30.4324 34.0335 30.8561 32.9937 30.8574 31.9091V30.2727C30.8574 30.1653 30.8367 30.0588 30.7963 29.9595C30.756 29.8603 30.6968 29.77 30.6221 29.694C30.5475 29.6181 30.4589 29.5578 30.3614 29.5167C30.2638 29.4756 30.1593 29.4545 30.0538 29.4545ZM27.0479 28.8H8.74307V14.9143H27.0479V28.8ZM16.3931 1.63636H19.6074V3.27273H16.3931V1.63636ZM11.3145 9.77143C13.5283 9.02034 15.952 8.10266 16.3444 4.90909H19.656C20.0484 8.1027 22.4722 9.02034 24.6859 9.77143C27.0268 10.5665 28.2169 10.9603 28.5434 12.8571H7.45707C7.78352 10.9603 8.97361 10.5665 11.3145 9.77143ZM28.8002 31.9091C28.7995 32.5599 28.2236 33.1838 27.7716 33.6439C27.3197 34.1041 27.4786 33.9421 26.8395 33.9429H9.77164C9.13249 33.9421 8.68073 34.1041 8.22878 33.6439C7.77684 33.1838 7.20091 32.5599 7.20021 31.9091V31.0909H28.8002V31.9091Z" fill="#4D8DDA"></path><path fill-rule="evenodd" clip-rule="evenodd" d="M13.8859 20.0571V24.1714H22.1145V20.0571H13.8859ZM13.3716 18.5143C12.8036 18.5143 12.3431 18.9748 12.3431 19.5429V24.6857C12.3431 25.2538 12.8036 25.7143 13.3716 25.7143H22.6288C23.1968 25.7143 23.6574 25.2538 23.6574 24.6857V19.5429C23.6574 18.9748 23.1968 18.5143 22.6288 18.5143H13.3716Z" fill="#4D8DDA"></path></svg>