<svg xmlns="http://www.w3.org/2000/svg" width="36" height="36" viewBox="0 0 36 36" fill="none"><path fill-rule="evenodd" clip-rule="evenodd" d="M5.38994 0.888184C5.91652 0.326563 6.62766 0 7.42917 0C8.22718 0 8.95363 0.306071 9.51248 0.864922L15.8928 7.24525C16.4684 7.82081 16.724 8.55465 16.724 9.2948C16.724 10.0534 16.441 10.7624 15.8928 11.3106L12.271 14.9325L21.0675 23.729L24.6894 20.1072C25.2376 19.559 25.9466 19.276 26.7052 19.276C27.4453 19.276 28.1792 19.5316 28.7547 20.1072L35.1351 26.4875C35.6939 27.0464 36 27.7728 36 28.5708C36 29.3723 35.6734 30.0835 35.1118 30.6101L30.8064 34.9454C30.1366 35.6199 29.2047 36.0242 28.2057 35.9989C24.5061 35.905 20.9965 35.1531 17.6914 33.7366L17.6819 33.7325C14.1752 32.2057 11.1044 30.1336 8.48539 27.5146C5.8664 24.8956 3.79426 21.8248 2.26752 18.3181L2.2634 18.3086L2.26343 18.3086C0.846942 15.0035 0.0950101 11.4939 0.0011259 7.79433C-0.0242257 6.79533 0.380125 5.86345 1.05458 5.19365L5.38994 0.888184ZM7.46122 3.90609L3.60179 7.7389C3.68839 10.9833 4.34697 14.0273 5.57111 16.8853C6.92488 19.9933 8.74553 22.6823 11.0316 24.9684C13.3177 27.2545 16.0068 29.0752 19.1148 30.429C21.9728 31.6531 25.0168 32.3116 28.2611 32.3982L32.0939 28.5388L26.7221 23.167L22.9772 26.9118C21.9225 27.9665 20.2126 27.9665 19.1579 26.9118L9.08818 16.8421C8.03351 15.7874 8.03351 14.0775 9.08818 13.0228L12.833 9.27792L7.46122 3.90609Z" fill="#4D8DDA"></path></svg>