<svg xmlns="http://www.w3.org/2000/svg" width="36" height="36" viewBox="0 0 36 36" fill="none"><path d="M34.9456 0.0401611H1.05443C0.472103 0.0401611 0 0.512265 0 1.09459V24.3631C0 24.9454 0.472103 25.4175 1.05443 25.4175H10.6894L7.22467 30.5157C6.9844 30.8693 6.98138 31.333 7.21708 31.6897C7.45285 32.0465 7.8806 32.2255 8.30012 32.143L11.9449 31.4268L12.6495 35.1038C12.7298 35.5228 13.0546 35.8521 13.4725 35.9382C13.8837 36.0243 14.3193 35.8515 14.5581 35.4968L18.0515 30.3399L21.533 35.4955C21.7315 35.7895 22.0611 35.9599 22.4067 35.9599C22.477 35.9599 22.548 35.9529 22.6187 35.9383C23.0369 35.8525 23.3621 35.5231 23.4424 35.1038L24.1471 31.4268L27.7918 32.143C28.2104 32.2252 28.6374 32.0472 28.8735 31.6918C29.1095 31.3363 29.1082 30.8737 28.87 30.5198L25.4372 25.4175H34.9456C35.5279 25.4175 36 24.9454 36 24.3631V1.09459C36 0.512194 35.5279 0.0401611 34.9456 0.0401611ZM6.50281 18.8139V6.64364H29.4971V18.8139H25.6934C23.7436 10.7194 12.3452 10.7249 10.3985 18.8139H6.50281ZM18.0459 26.3226C14.8832 26.3226 12.3102 23.7415 12.3102 20.5689C12.6255 12.9356 23.4676 12.9378 23.7818 20.5689C23.7818 23.7415 21.2087 26.3226 18.0459 26.3226ZM14.2411 32.2045L13.8166 29.9894C13.7638 29.7139 13.6034 29.4708 13.3709 29.3138C13.1384 29.1569 12.8531 29.099 12.5777 29.1532L10.411 29.579L12.6558 26.2759C13.79 27.3527 15.2439 28.0946 16.8582 28.3414L14.2411 32.2045ZM23.5142 29.1532C23.2389 29.099 22.9535 29.1569 22.721 29.3138C22.4885 29.4707 22.3281 29.7139 22.2753 29.9894L21.8519 32.1993L19.3259 28.4587L19.427 28.3094C20.9747 28.0327 22.3666 27.2997 23.4589 26.2546L25.6977 29.5822L23.5142 29.1532ZM33.8911 23.3086H25.399C25.6775 22.5603 25.8451 21.7583 25.8823 20.9229H30.5516C31.1339 20.9229 31.6061 20.4508 31.6061 19.8684V5.58921C31.6061 5.00688 31.1339 4.53478 30.5516 4.53478H5.44838C4.86605 4.53478 4.39395 5.00688 4.39395 5.58921V19.8684C4.39395 20.4507 4.86605 20.9228 5.44838 20.9228H10.2097C10.2468 21.7583 10.4145 22.5602 10.693 23.3086H2.10886V2.14902H33.8911V23.3086Z" fill="#4D8DDA"></path><path d="M18.0462 16.9813C16.0717 16.9813 14.4653 18.5907 14.4653 20.5689C14.6621 25.3283 21.431 25.327 21.6271 20.5689C21.6271 18.5907 20.0207 16.9813 18.0462 16.9813ZM18.0462 22.0476C17.2345 22.0476 16.5742 21.3842 16.5742 20.5688C16.6552 18.6071 19.4375 18.6077 19.5182 20.5688C19.5182 21.3842 18.8579 22.0476 18.0462 22.0476Z" fill="#4D8DDA"></path><path d="M25.8404 9.82885C25.8404 9.24652 25.3683 8.77441 24.786 8.77441H11.2056C9.80659 8.83016 9.80764 10.8281 11.2056 10.8833H24.786C25.3683 10.8833 25.8404 10.4112 25.8404 9.82885Z" fill="#4D8DDA"></path></svg>