<svg xmlns="http://www.w3.org/2000/svg" width="18" height="18" viewBox="0 0 18 18" fill="none"><path fill-rule="evenodd" clip-rule="evenodd" d="M2.69497 0.444092C2.95826 0.163281 3.31383 0 3.71458 0C4.11359 0 4.47681 0.153035 4.75624 0.432461L7.9464 3.62263C8.23418 3.9104 8.36199 4.27733 8.36199 4.6474C8.36199 5.02672 8.22051 5.3812 7.9464 5.6553L6.13548 7.46623L10.5338 11.8645L12.3447 10.0536C12.6188 9.77949 12.9733 9.63801 13.3526 9.63801C13.7227 9.63801 14.0896 9.76582 14.3774 10.0536L17.5675 13.2438C17.847 13.5232 18 13.8864 18 14.2854C18 14.6862 17.8367 15.0417 17.5559 15.305L15.4032 17.4727C15.0683 17.8099 14.6023 18.0121 14.1028 17.9994C12.2531 17.9525 10.4983 17.5765 8.8457 16.8683L8.84097 16.8662C7.0876 16.1029 5.55219 15.0668 4.24269 13.7573C2.9332 12.4478 1.89713 10.9124 1.13376 9.15903L1.1317 9.1543L1.13171 9.1543C0.423471 7.50173 0.047505 5.74694 0.000562949 3.89716C-0.0121128 3.39767 0.190063 2.93172 0.527289 2.59682L2.69497 0.444092ZM3.73061 1.95305L1.8009 3.86945C1.84419 5.49163 2.17348 7.01365 2.78556 8.44267C3.46244 9.99664 4.37276 11.3412 5.5158 12.4842C6.65886 13.6273 8.00341 14.5376 9.55742 15.2145C10.9864 15.8265 12.5084 16.1558 14.1306 16.1991L16.047 14.2694L13.361 11.5835L11.4886 13.4559C10.9613 13.9832 10.1063 13.9832 9.57894 13.4559L4.54409 8.42106C4.01675 7.89372 4.01675 7.03873 4.54409 6.51139L6.41652 4.63896L3.73061 1.95305Z" fill="#4D8DDA"></path></svg>