<svg xmlns="http://www.w3.org/2000/svg" width="32" height="32" viewBox="0 0 32 32" fill="none"><path d="M26.6739 10.932V4.36668H20.3474V6.1198L15.9999 2.81299L0 14.9832L3.86219 20.0609L5.326 18.9475V29.1865H14.5139V22.2619H17.4861V29.1864H26.674V18.9473L28.1378 20.0607L32 14.9831L26.6739 10.932ZM24.7968 27.3093H19.3632V20.3848H12.6368V27.3093H7.20312V17.5197L16.0001 10.8285L24.7968 17.5195V27.3093ZM27.7801 17.4303L16.0001 8.47005L4.21981 17.4304L2.63037 15.3409L15.9999 5.17149L22.2244 9.90605V6.2438H24.7967V11.8626L29.3694 15.3407L27.7801 17.4303Z" fill="#4D8DDA"></path></svg>