<svg xmlns="http://www.w3.org/2000/svg" width="32" height="32" viewBox="0 0 32 32" fill="none"><g clip-path="url(#clip0)"><path d="M17 13H32V32H17V13Z" fill="white"></path><path fill-rule="evenodd" clip-rule="evenodd" d="M30.4 14.6H18.6V30.4H30.4V14.6ZM17 13V32H32V13H17Z" fill="#4D8DDA"></path><path d="M21.7368 26.4736H27.2631V31.9999H21.7368V26.4736Z" fill="white"></path><path fill-rule="evenodd" clip-rule="evenodd" d="M25.6631 28.0736H23.3368V30.3999H25.6631V28.0736ZM21.7368 26.4736V31.9999H27.2631V26.4736H21.7368Z" fill="#4D8DDA"></path><path d="M23.6579 18H20.5V19.6H23.6579V18Z" fill="#4D8DDA"></path><path d="M23.6579 22.6001H20.5V24.2001H23.6579V22.6001Z" fill="#4D8DDA"></path><path d="M25.6582 22.6001H28.8161V24.2001H25.6582V22.6001Z" fill="#4D8DDA"></path><path d="M28.8161 18H25.6582V19.6H28.8161V18Z" fill="#4D8DDA"></path><path d="M0 0H19V32H0V0Z" fill="white"></path><path fill-rule="evenodd" clip-rule="evenodd" d="M17.4 1.6H1.6V30.4H17.4V1.6ZM0 0V32H19V0H0Z" fill="#4D8DDA"></path><path d="M6 25H13V32H6V25Z" fill="white"></path><path fill-rule="evenodd" clip-rule="evenodd" d="M11.4 26.6H7.6V30.4H11.4V26.6ZM6 25V32H13V25H6Z" fill="#4D8DDA"></path><path d="M4 20H8V21.6H4V20Z" fill="#4D8DDA"></path><path d="M4 15H8V16.6H4V15Z" fill="#4D8DDA"></path><path d="M4 10H8V11.6H4V10Z" fill="#4D8DDA"></path><path d="M4 5H8V6.6H4V5Z" fill="#4D8DDA"></path><path d="M11 20H15V21.6H11V20Z" fill="#4D8DDA"></path><path d="M11 15H15V16.6H11V15Z" fill="#4D8DDA"></path><path d="M11 10H15V11.6H11V10Z" fill="#4D8DDA"></path><path d="M11 5H15V6.6H11V5Z" fill="#4D8DDA"></path></g><defs><clipPath id="clip0"><rect width="32" height="32" fill="white"></rect></clipPath></defs></svg>