<svg xmlns="http://www.w3.org/2000/svg" width="18" height="14" viewBox="0 0 18 14" fill="none"><path d="M18 1.21739L17.4 0C16.3125 0.469203 15.2438 1.02717 14.1938 1.67391C13.1562 2.30797 12.1562 2.99909 11.1937 3.74728C10.2312 4.48279 9.3125 5.25634 8.4375 6.06793C7.5625 6.87953 6.75 7.69746 6 8.52174L1.8 5.47826L0 7.30435L6 14C6.6875 12.7699 7.4375 11.5525 8.25 10.3478C9.0625 9.14312 9.95625 7.98913 10.9312 6.88587C11.9187 5.78261 12.9938 4.74909 14.1563 3.78533C15.3313 2.82156 16.6125 1.96558 18 1.21739Z" fill="#4D8DDA"></path></svg>